<?xml version="1.0" standalone="no"?>
<!DOCTYPE svg PUBLIC "-//W3C//DTD SVG 20010904//EN"
 "http://www.w3.org/TR/2001/REC-SVG-20010904/DTD/svg10.dtd">
<svg version="1.0" xmlns="http://www.w3.org/2000/svg"
 width="400.000000pt" height="400.000000pt" viewBox="0 0 400.000000 400.000000"
 preserveAspectRatio="xMidYMid meet">
<metadata>
Created by potrace 1.14, written by Peter Selinger 2001-2017
</metadata>
<g transform="translate(0.000000,400.000000) scale(0.100000,-0.100000)"
fill="#000000" stroke="none">
<path d="M580 3654 c-97 -29 -174 -96 -219 -194 l-25 -55 0 -490 0 -490 27
-58 c48 -104 146 -179 254 -195 26 -4 246 -7 488 -7 397 1 445 3 495 20 108
35 180 108 216 215 16 50 18 97 18 520 -1 413 -2 470 -18 514 -32 91 -92 158
-184 203 l-57 28 -478 0 c-334 0 -490 -3 -517 -11z m575 -323 c7 -1 11 -54 10
-153 -1 -84 1 -159 3 -165 3 -10 46 -13 168 -13 l165 0 -3 -82 -3 -83 -160 -1
c-88 -1 -162 -2 -165 -3 -3 0 -5 -74 -5 -163 l0 -163 -82 -3 -83 -3 -2 168 -3
168 -162 -1 c-90 0 -163 2 -164 5 -1 3 -2 41 -3 84 l-1 77 167 0 168 0 0 163
c0 90 2 166 4 168 4 3 120 4 151 0z"/>
<path d="M2433 3658 c-107 -18 -200 -99 -248 -218 -16 -41 -18 -85 -19 -495
-1 -247 2 -470 6 -494 21 -116 89 -203 198 -254 l65 -30 445 -1 c245 -1 468 2
495 5 111 15 215 92 263 197 l25 57 1 490 0 490 -26 56 c-36 79 -89 133 -166
171 l-66 33 -465 0 c-256 0 -485 -3 -508 -7z m902 -743 l0 -80 -415 0 -415 0
-3 83 -3 82 418 -2 418 -3 0 -80z"/>
<path d="M635 1832 c-116 -13 -221 -90 -274 -202 l-26 -55 1 -485 c0 -452 1
-489 19 -537 27 -76 92 -146 172 -185 l67 -33 491 1 c479 0 491 0 537 21 95
43 168 123 199 218 14 46 21 897 7 974 -21 115 -90 205 -198 254 l-65 30 -450
1 c-247 1 -463 0 -480 -2z m304 -486 l144 -144 144 142 c79 77 147 142 151
144 4 1 32 -23 62 -53 l54 -55 -61 -63 c-34 -34 -99 -101 -146 -148 l-84 -86
143 -144 c79 -79 143 -147 144 -150 0 -9 -101 -109 -111 -109 -4 0 -72 63
-150 140 -78 77 -143 140 -146 140 -2 0 -70 -65 -151 -144 l-146 -144 -56 55
c-30 31 -54 59 -52 62 1 3 60 65 130 136 70 72 133 137 139 146 11 14 -7 37
-127 159 -77 79 -140 147 -140 152 0 10 101 108 110 108 3 0 70 -65 149 -144z"/>
<path d="M2470 1832 c-135 -17 -243 -104 -286 -232 -16 -50 -18 -97 -18 -520
1 -412 3 -471 18 -514 31 -91 92 -158 184 -203 l57 -28 490 1 490 0 55 24 c75
33 134 91 173 169 l32 65 0 491 -1 490 -25 55 c-42 89 -113 154 -205 186 -43
15 -102 17 -494 18 -245 1 -456 0 -470 -2z m851 -501 c12 -1 15 -15 13 -78 -1
-43 -2 -80 -3 -83 -1 -3 -188 -5 -416 -5 l-415 0 0 81 c0 44 2 83 4 85 4 3
771 4 817 0z m13 -408 c-1 -43 -2 -80 -3 -83 0 -3 -188 -5 -416 -5 l-415 0 0
82 0 83 418 0 418 0 -2 -77z"/>
</g>
</svg>
